# Aspose.3D Wavefront OBJ Exporter
# Copyright 2004-2021 Aspose Pty Ltd.
# File created: 07/03/2021 06:38:05


#
# object obj_47063812
#

v -5.551115123125783E-17 9.999999747378752E-05 -0.00458257552236318
v 0 9.999999747378752E-05 0
v -5.551115123125783E-17 0 -0.00458257552236318
v 0 0 0
v -0.0004326932830736041 0 -0.00436829542741179
v -0.0004326932830736041 9.999999747378752E-05 -0.00436829542741179
v -0.00084270030492916 0 -0.00411327788606286
v -0.00084270030492916 9.999999747378752E-05 -0.00411327788606286
v -0.00122619746252894 0 -0.00381990172900259
v -0.00122619746252894 9.999999747378752E-05 -0.00381990172900259
v -0.00157960841897875 0 -0.00349090294912457
v -0.00157960841897875 9.999999747378752E-05 -0.00349090294912457
v -0.00189963751472532 0 -0.00312934932298958
v -0.00189963751472532 9.999999747378752E-05 -0.00312934932298958
v -0.00218330021016299 0 -0.00273861270397901
v -0.00218330021016299 9.999999747378752E-05 -0.00273861270397901
v -0.00242795096710324 0 -0.00232233712449669
v -0.00242795096710324 9.999999747378752E-05 -0.00232233712449669
v -0.00263130874373018 0 -0.00188440410420298
v -0.00263130874373018 9.999999747378752E-05 -0.00188440410420298
v -0.00279147690162062 0 -0.00142889807466417
v -0.00279147690162062 9.999999747378752E-05 -0.00142889807466417
v -0.00290696159936487 0 -0.00096006668172776
v -0.00290696159936487 9.999999747378752E-05 -0.00096006668172776
v -0.00297668599523603 0 -0.0004822821356356144
v -0.00297668599523603 9.999999747378752E-05 -0.0004822821356356144
v -0.00300000002607703 0 -1.3877787807814457E-17
v -0.00300000002607703 9.999999747378752E-05 -1.3877787807814457E-17
# 28 vertices

vn 1 3.469446951953614E-18 1.4988010832439613E-15
vn -0.44378638267517088 -8.548408704923109E-18 -0.89613258838653568
vn -0.5281556248664856 -8.473649775521791E-18 -0.84914755821228032
vn -0.60759860277175904 -8.319870282203283E-18 -0.79424428939819328
vn -0.68137526512146 -8.088503728969138E-18 -0.73193424940109248
vn -0.74879795312881472 -7.781706575676283E-18 -0.66279834508895872
vn -0.80923759937286384 -7.402340040063538E-18 -0.58748149871826168
vn -0.86213076114654544 -6.953941973610793E-18 -0.5066858530044556
vn -0.90698385238647456 -6.440695842266034E-18 -0.42116537690162656
vn -0.9433788061141968 -5.8673868858728815E-18 -0.3317173421382904
vn -0.9709764122962952 -5.239358277598121E-18 -0.23917534947395324
vn -0.98951894044876096 -4.5624705920816904E-18 -0.14440318942070008
vn -0.9988335967063904 -3.843038112529514E-18 -0.04828467965126038
vn -1.27675647831893E-15 7.821068792305232E-18 1
vn -3.469446951953614E-18 1 -7.821068792305232E-18
vn 3.469446951953614E-18 -1 7.821068792305232E-18
# 16 vertex normals

g obj_47063812
s 1
f 1//1 2//1 3//1
f 3//1 2//1 4//1
f 1//2 3//2 5//2
f 1//2 5//2 6//2
f 6//3 5//3 7//3
f 6//3 7//3 8//3
f 8//4 7//4 9//4
f 8//4 9//4 10//4
f 10//5 9//5 11//5
f 10//5 11//5 12//5
f 12//6 11//6 13//6
f 12//6 13//6 14//6
f 14//7 13//7 15//7
f 14//7 15//7 16//7
f 16//8 15//8 17//8
f 16//8 17//8 18//8
f 18//9 17//9 19//9
f 18//9 19//9 20//9
f 20//10 19//10 21//10
f 20//10 21//10 22//10
f 22//11 21//11 23//11
f 22//11 23//11 24//11
f 24//12 23//12 25//12
f 24//12 25//12 26//12
f 26//13 25//13 27//13
f 26//13 27//13 28//13
f 2//14 28//14 4//14
f 4//14 28//14 27//14
f 20//15 22//15 2//15
f 8//15 2//15 6//15
f 6//15 2//15 1//15
f 22//15 24//15 2//15
f 2//15 24//15 26//15
f 2//15 26//15 28//15
f 8//15 10//15 2//15
f 2//15 10//15 12//15
f 2//15 12//15 14//15
f 14//15 16//15 2//15
f 2//15 16//15 18//15
f 2//15 18//15 20//15
f 27//16 25//16 4//16
f 4//16 25//16 23//16
f 4//16 23//16 21//16
f 21//16 19//16 4//16
f 4//16 19//16 17//16
f 4//16 17//16 15//16
f 15//16 13//16 4//16
f 4//16 13//16 11//16
f 4//16 11//16 9//16
f 9//16 7//16 4//16
f 4//16 7//16 5//16
f 4//16 5//16 3//16
#52 polygons

