# Aspose.3D Wavefront OBJ Exporter
# Copyright 2004-2021 Aspose Pty Ltd.
# File created: 07/03/2021 06:40:23


#
# object obj_59682473
#

v 0 9.999999747378752E-05 -0.00458257552236318
v 0 9.999999747378752E-05 0
v 0 0 -0.00458257552236318
v 0 0 0
v -1.3877787807814457E-17 9.999999747378752E-05 -0.00458257552236318
v -1.3877787807814457E-17 0 -0.00458257552236318
v -0.0004326932830736041 0 -0.00436829542741179
v -0.0004326932830736041 9.999999747378752E-05 -0.00436829542741179
v -0.00084270030492916 0 -0.00411327788606286
v -0.00084270030492916 9.999999747378752E-05 -0.00411327788606286
v -0.00122619746252894 0 -0.00381990172900259
v -0.00122619746252894 9.999999747378752E-05 -0.00381990172900259
v -0.00157960841897875 0 -0.00349090294912457
v -0.00157960841897875 9.999999747378752E-05 -0.00349090294912457
v -0.00189963751472532 0 -0.00312934932298958
v -0.00189963751472532 9.999999747378752E-05 -0.00312934932298958
v -0.00218330021016299 0 -0.00273861270397901
v -0.00218330021016299 9.999999747378752E-05 -0.00273861270397901
v -0.00242795096710324 0 -0.00232233712449669
v -0.00242795096710324 9.999999747378752E-05 -0.00232233712449669
v -0.00263130874373018 0 -0.00188440410420298
v -0.00263130874373018 9.999999747378752E-05 -0.00188440410420298
v -0.00279147690162062 0 -0.00142889807466417
v -0.00279147690162062 9.999999747378752E-05 -0.00142889807466417
v -0.00290696159936487 0 -0.00096006668172776
v -0.00290696159936487 9.999999747378752E-05 -0.00096006668172776
v -0.00297668599523603 0 -0.0004822821356356144
v -0.00297668599523603 9.999999747378752E-05 -0.0004822821356356144
v -0.00300000002607703 0 1.3877787807814457E-17
v -0.00300000002607703 9.999999747378752E-05 1.3877787807814457E-17
# 30 vertices

vn 1 7.025630077706069E-17 -1.1102230246251565E-16
vn -0.44378638267517088 -3.7576737350585314E-17 -0.89613258838653568
vn -0.5281556248664856 -4.316875953285205E-17 -0.84914755821228032
vn -0.60759860277175904 -4.835814328015247E-17 -0.79424428939819328
vn -0.68137526512146 -5.3096558083656336E-17 -0.73193424940109248
vn -0.74879795312881472 -5.733982918993086E-17 -0.66279834508895872
vn -0.80923759937286384 -6.10483710435817E-17 -0.58748149871826168
vn -0.86213076114654544 -6.418760749500414E-17 -0.5066858530044556
vn -0.90698385238647456 -6.672824311562402E-17 -0.42116537690162656
vn -0.9433788061141968 -6.86466073050325E-17 -0.3317173421382904
vn -0.9709764122962952 -6.992480649221884E-17 -0.23917534947395324
vn -0.98951894044876096 -7.055090942402757E-17 -0.14440318942070008
vn -0.9988335967063904 -7.051908613150143E-17 -0.04828467965126038
vn 2.220446049250313E-16 7.139510017869714E-18 1
vn -7.025630077706069E-17 1 -7.139510017869714E-18
vn 7.025630077706069E-17 -1 7.139510017869714E-18
# 16 vertex normals

g obj_59682473
s 1
f 1//1 2//1 3//1
f 3//1 2//1 4//1
f 5//2 6//2 7//2
f 5//2 7//2 8//2
f 8//3 7//3 9//3
f 8//3 9//3 10//3
f 10//4 9//4 11//4
f 10//4 11//4 12//4
f 12//5 11//5 13//5
f 12//5 13//5 14//5
f 14//6 13//6 15//6
f 14//6 15//6 16//6
f 16//7 15//7 17//7
f 16//7 17//7 18//7
f 18//8 17//8 19//8
f 18//8 19//8 20//8
f 20//9 19//9 21//9
f 20//9 21//9 22//9
f 22//10 21//10 23//10
f 22//10 23//10 24//10
f 24//11 23//11 25//11
f 24//11 25//11 26//11
f 26//12 25//12 27//12
f 26//12 27//12 28//12
f 28//13 27//13 29//13
f 28//13 29//13 30//13
f 2//14 30//14 4//14
f 4//14 30//14 29//14
f 22//15 24//15 2//15
f 10//15 2//15 8//15
f 8//15 2//15 5//15
f 24//15 26//15 2//15
f 2//15 26//15 28//15
f 2//15 28//15 30//15
f 10//15 12//15 2//15
f 2//15 12//15 14//15
f 2//15 14//15 16//15
f 16//15 18//15 2//15
f 2//15 18//15 20//15
f 2//15 20//15 22//15
f 29//16 27//16 4//16
f 4//16 27//16 25//16
f 4//16 25//16 23//16
f 23//16 21//16 4//16
f 4//16 21//16 19//16
f 4//16 19//16 17//16
f 17//16 15//16 4//16
f 4//16 15//16 13//16
f 4//16 13//16 11//16
f 11//16 9//16 4//16
f 4//16 9//16 7//16
f 4//16 7//16 6//16
#52 polygons

